<?xml version="1.0" standalone="no"?>
<!DOCTYPE svg PUBLIC "-//W3C//DTD SVG 20010904//EN"
 "http://www.w3.org/TR/2001/REC-SVG-20010904/DTD/svg10.dtd">
<svg version="1.0" xmlns="http://www.w3.org/2000/svg"
 width="219.000000pt" height="219.000000pt" viewBox="0 0 219.000000 219.000000"
 preserveAspectRatio="xMidYMid meet">
<metadata>
Created by potrace 1.11, written by Peter Selinger 2001-2013
</metadata>
<g transform="translate(0.000000,219.000000) scale(0.100000,-0.100000)"
fill="#000000" stroke="none">
<path d="M1559 1755 c-36 -19 -75 -111 -105 -247 -14 -62 -28 -115 -30 -117
-2 -2 -12 3 -21 11 -39 34 -142 77 -215 89 -61 10 -93 10 -153 1 -81 -13 -186
-50 -245 -87 l-35 -22 -28 66 c-49 115 -116 217 -157 240 -21 12 -45 19 -53
15 -21 -8 -44 -69 -57 -149 -11 -67 -14 -351 -5 -434 l5 -44 -132 8 c-73 4
-136 9 -139 10 -3 2 -40 5 -83 6 -84 3 -96 -3 -96 -53 0 -54 33 -61 400 -83
30 -2 58 -4 62 -4 7 -1 30 -73 25 -77 -1 -1 -96 -18 -212 -39 -115 -20 -218
-41 -227 -46 -24 -13 -32 -52 -18 -79 11 -20 17 -22 68 -16 50 5 232 35 387
65 27 5 50 9 51 8 0 -1 8 -14 17 -29 9 -15 17 -30 17 -33 0 -8 -186 -98 -280
-136 -90 -36 -109 -51 -110 -86 0 -36 11 -53 36 -53 31 0 181 60 317 127 59
29 113 53 119 53 7 0 21 -9 32 -19 39 -36 141 -80 226 -97 66 -13 114 -15 220
-11 74 3 149 9 165 12 118 22 146 30 196 57 31 16 69 42 84 58 l27 28 96 -45
c149 -69 324 -125 355 -114 45 17 48 78 4 98 -12 6 -66 25 -121 42 -97 31
-266 104 -266 116 0 3 7 22 15 41 l15 36 67 -6 c38 -4 84 -9 103 -11 19 -2 80
-7 135 -10 55 -4 103 -9 106 -11 15 -9 49 29 49 55 0 54 -19 61 -225 76 -38 2
-101 8 -138 11 l-68 6 3 41 3 40 200 64 c110 36 210 74 222 85 25 24 24 65 -3
85 -22 16 -3 21 -231 -55 l-183 -60 -1 41 c0 23 -2 49 -3 57 -2 8 -6 44 -10
80 -17 164 -80 383 -125 431 -24 26 -28 27 -52 14z"/>
</g>
</svg>
